<?xml version="1.0" encoding="utf-8"?>
<svg width="1024px" height="1024px" viewBox="0 0 1024 1024" version="1.1" xmlns:xlink="http://www.w3.org/1999/xlink" xmlns="http://www.w3.org/2000/svg">
  <defs>
    <path d="M1024 0L1024 0L1024 1024L0 1024L0 0L1024 0Z" id="path_1" />
    <clipPath id="clip_1">
      <use xlink:href="#path_1" />
    </clipPath>
  </defs>
  <g id="icon" clip-path="url(#clip_1)">
    <path d="M1024 0L1024 0L1024 1024L0 1024L0 0L1024 0Z" id="icon" fill="none" stroke="none" />
    <path d="M711 0C883.889 0 1024 140.111 1024 313L1024 711C1024 883.889 883.889 1024 711 1024L313 1024C140.111 1024 0 883.889 0 711L0 313C0 140.111 140.111 0 313 0L711 0Z" id="Rectangle" fill="#0e0f11" stroke="none" />
    <path d="M290.812 287.171C300.663 365.985 330.218 464.502 384.403 565.482C436.124 668.925 497.697 752.664 556.807 804.386C586.363 831.478 615.918 848.718 640.547 858.57C665.176 868.422 684.88 865.959 699.657 858.57C711.972 851.181 724.286 836.404 731.675 814.237C739.064 789.608 739.064 757.59 736.601 720.646C732.315 676.354 704.788 587.617 683.889 520.244C668.763 471.482 657.109 433.912 660.25 432.484C667.732 429.083 758.767 639.37 766.156 718.183C768.619 757.59 768.619 792.071 758.767 821.626C751.379 848.718 736.601 873.348 711.972 885.662C687.343 897.977 657.787 895.514 628.232 885.662C601.14 875.811 569.122 853.644 537.104 826.552C475.531 769.905 411.495 683.702 357.31 580.26C303.126 476.817 271.108 373.374 261.256 289.634C256.331 247.765 258.793 210.821 266.182 181.266C273.571 151.711 288.349 127.081 315.441 114.767C337.607 99.9892 367.162 102.452 396.717 112.304C400.323 113.943 404.656 116.454 409.448 119.592C419.894 115.847 432.799 117.306 444.392 124.55C454.554 130.9 466.052 144.398 472.772 157.891C483.063 167.792 488.756 178.474 487.601 186.389L496.353 191.648C496.364 191.643 496.37 191.641 496.37 191.641C496.37 191.641 505.547 197.49 511.37 191.641C508.981 197.159 502.798 197.792 498.586 196.942C501.419 200.144 503.904 205.655 500.468 210.456C502.128 203.861 495.807 199.404 493.53 198.04C493.318 197.964 493.109 197.865 492.908 197.744L484.789 192.866C484.689 192.862 484.586 192.856 484.479 192.846C479.254 198.242 468.454 198.947 455.881 195.388C440.391 195.374 420.593 188.684 408.887 181.369C394.404 172.319 387.544 156.819 389.881 142.991C388.795 142.546 387.788 142.167 386.867 141.86C362.237 132.008 342.534 132.008 327.756 139.397C312.979 146.786 300.664 164.026 295.738 188.655C288.349 213.285 285.887 247.765 290.812 287.172L290.812 287.171L290.812 287.171Z" id="Vector" fill="#FF00FF" fill-rule="evenodd" stroke="none" />
    <path d="M164.022 532.909C152.47 525.691 139.614 524.216 129.188 527.912C114.766 510.88 107.555 493.878 107.555 479.28C110.018 462.039 117.407 444.799 139.573 430.021C159.277 412.781 188.832 398.003 225.776 385.688C302.126 361.059 405.569 348.745 518.864 353.67C634.621 358.596 735.601 383.226 807.026 415.244C843.97 430.021 873.525 447.262 890.765 466.965C910.469 484.205 917.858 503.909 915.395 518.686C915.395 535.927 908.006 550.704 890.765 565.482C883.082 573.165 864.941 584.743 847.489 595.881C825.781 609.735 805.141 622.908 807.026 627.055C810.426 634.536 888.302 607.352 910.469 587.648C930.172 570.408 944.95 545.779 944.95 521.149C947.413 494.057 932.635 466.965 912.932 444.799C890.765 425.095 858.747 405.392 819.341 388.151C742.99 353.67 637.084 329.041 521.327 324.115C403.106 319.189 297.2 331.504 215.924 356.133C176.517 370.911 144.499 385.688 119.87 405.392C95.2405 425.095 80.4629 449.725 78 476.817C78 503.909 87.8517 528.538 107.555 548.241C108.201 548.968 108.909 549.708 109.675 550.459C106.882 564.507 113.722 580.483 128.517 589.728C140.223 597.043 160.021 603.733 175.511 603.747C188.166 607.33 199.024 606.592 204.21 601.1L212.538 606.104C212.739 606.224 212.948 606.323 213.16 606.399C215.437 607.763 221.758 612.22 220.098 618.815C223.534 614.014 221.05 608.503 218.216 605.302C222.428 606.151 228.611 605.518 231 600C225.177 605.849 216 600 216 600C216 600 215.994 600.002 215.983 600.007L208.216 595.34C207.997 594.897 207.699 594.413 207.328 593.891C207.975 586.072 202.327 575.798 192.403 566.25C185.682 552.758 174.184 539.259 164.022 532.909L164.022 532.909Z" id="Vector" fill="#FF00FF" fill-rule="evenodd" stroke="none" />
    <path d="M348.922 843.792C351.589 842.992 354.989 841.908 358.931 840.618C359.677 828.402 367.717 816.274 381.145 809.134C391.725 803.509 409.164 800.3 424.21 801.226C437.93 797.265 450.027 797.675 456.304 802.634L465.234 797.684C465.236 797.672 465.237 797.665 465.237 797.665C465.237 797.665 474.89 792.643 472.737 784.675C476.321 789.503 473.778 795.174 470.936 798.397C475.126 797.544 481.14 798.148 483.58 803.524C478.698 798.789 471.678 802.035 469.359 803.324C469.186 803.47 468.997 803.601 468.792 803.715L460.294 808.425C462.458 815.663 457.667 825.435 448.237 834.603C440.48 848.011 424.788 861.811 412.6 868.292C397.754 876.185 381.189 874.554 370.367 865.973C365.068 868.189 360.287 869.89 356.31 870.885C326.755 878.273 297.2 875.81 275.034 861.033C252.868 846.255 240.553 821.626 235.627 789.608C230.701 760.053 233.164 720.646 240.553 681.239C260.256 599.963 304.589 501.446 368.625 402.929C432.661 304.412 506.549 225.598 575.511 176.34C607.529 154.174 642.01 136.933 671.565 129.544C701.12 119.693 730.675 122.155 755.304 136.933C777.471 151.711 789.785 178.803 794.711 208.358C799.637 240.376 778.243 330.401 770.082 329.041C765.578 328.29 766.045 301.363 766.54 272.826C766.943 249.655 767.363 225.424 765.156 213.284C760.23 188.654 752.841 171.414 738.064 161.562C723.286 151.711 703.583 151.711 678.953 156.636C654.324 164.025 624.769 178.803 592.751 200.969C528.715 247.765 454.827 324.115 393.254 420.169C329.218 513.76 287.349 609.815 270.108 688.628C262.719 725.572 260.256 760.053 262.719 784.682C267.645 811.774 277.497 829.015 292.274 836.404C304.589 846.255 324.292 848.718 348.922 843.792L348.922 843.792Z" id="Vector" fill="#FF00FF" fill-rule="evenodd" stroke="none" />
    <path d="M461.426 412.973C488.805 395.193 534.775 417.389 564.102 462.55C593.43 507.711 595.01 558.734 567.631 576.514C540.252 594.294 494.282 572.098 464.954 526.938C435.627 481.777 434.047 430.753 461.426 412.973L461.426 412.973ZM470.306 523.072C470.306 523.072 476.071 500.902 507.277 481.773C538.483 462.644 559.624 465.068 559.624 465.068C559.624 465.068 551.115 486.392 521.982 504.417C492.849 522.442 470.306 523.072 470.306 523.072L470.306 523.072Z" id="Vector" fill="#FF00FF" fill-rule="evenodd" stroke="none" />
  </g>
</svg>